<svg width="16" height="20" viewBox="0 0 16 20" fill="none" xmlns="http://www.w3.org/2000/svg">
<path d="M9.22998 13.75C9.22998 14.0214 9.31833 14.2855 9.48167 14.5022C9.64501 14.719 9.87447 14.8767 10.1354 14.9516C10.3963 15.0264 10.6745 15.0143 10.9279 14.917C11.1813 14.8198 11.3961 14.6427 11.54 14.4125L14.9 11.0537C15.016 10.9376 15.1081 10.7998 15.1709 10.648C15.2336 10.4963 15.2659 10.3337 15.2659 10.1696C15.2658 10.0054 15.2334 9.8428 15.1705 9.69114C15.1076 9.53947 15.0155 9.40168 14.8994 9.28562C14.7832 9.16957 14.6454 9.07752 14.4936 9.01475C14.3419 8.95197 14.1793 8.91969 14.0152 8.91975C13.851 8.9198 13.6884 8.9522 13.5367 9.01509C13.3851 9.07797 13.2473 9.17011 13.1312 9.28625L11.7312 10.6862V1.25C11.7312 0.918479 11.5995 0.600537 11.3651 0.366117C11.1307 0.131696 10.8128 0 10.4812 0C10.1497 0 9.83177 0.131696 9.59735 0.366117C9.36293 0.600537 9.23123 0.918479 9.23123 1.25V13.6875V13.75H9.22998Z" fill="white"/>
<path d="M6.76996 6.25C6.76996 5.97858 6.68162 5.71453 6.51828 5.49775C6.35494 5.28098 6.12547 5.12326 5.86457 5.04844C5.60366 4.97361 5.32549 4.98574 5.07208 5.08299C4.81868 5.18024 4.60382 5.35733 4.45996 5.5875L1.10121 8.94625C0.981827 9.06156 0.886599 9.19949 0.821087 9.352C0.755576 9.5045 0.721094 9.66852 0.719652 9.8345C0.718209 10.0005 0.749836 10.1651 0.812687 10.3187C0.875538 10.4723 0.968355 10.6119 1.08572 10.7292C1.20309 10.8466 1.34265 10.9394 1.49627 11.0023C1.64989 11.0651 1.81449 11.0968 1.98047 11.0953C2.14644 11.0939 2.31046 11.0594 2.46297 10.9939C2.61547 10.9284 2.75341 10.8331 2.86871 10.7138L4.26996 9.31375V18.75C4.26996 19.0815 4.40166 19.3995 4.63608 19.6339C4.8705 19.8683 5.18844 20 5.51996 20C5.85148 20 6.16943 19.8683 6.40385 19.6339C6.63827 19.3995 6.76996 19.0815 6.76996 18.75V6.3125V6.25Z" fill="white"/>
</svg>
